<?xml version="1.0" standalone="no"?>
<!DOCTYPE svg PUBLIC "-//W3C//DTD SVG 20010904//EN"
 "http://www.w3.org/TR/2001/REC-SVG-20010904/DTD/svg10.dtd">
<svg version="1.0" xmlns="http://www.w3.org/2000/svg"
 width="512.000000pt" height="512.000000pt" viewBox="0 0 512.000000 512.000000"
 preserveAspectRatio="xMidYMid meet">

<g transform="translate(0.000000,512.000000) scale(0.100000,-0.100000)"
fill="#000000" stroke="none">
<path d="M990 5111 c-98 -30 -173 -116 -186 -213 -4 -29 99 -799 305 -2293
171 -1237 315 -2266 320 -2285 35 -146 162 -270 311 -304 101 -23 1565 -24
1653 -1 145 38 253 136 302 275 25 69 637 4521 633 4596 -6 107 -82 197 -185
223 -49 13 -3112 14 -3153 2z m3123 -173 c33 -17 46 -39 46 -78 0 -44 -32
-277 -39 -283 -3 -3 -34 0 -70 8 -176 36 -363 26 -512 -28 l-64 -23 -59 24
c-78 31 -175 52 -248 52 -71 0 -191 -24 -254 -51 -46 -20 -47 -20 -92 0 -140
60 -316 64 -469 12 l-88 -30 -59 24 c-86 34 -184 49 -281 41 -80 -6 -185 -33
-233 -60 -21 -12 -34 -10 -108 15 -128 44 -239 55 -389 40 -69 -6 -137 -16
-151 -22 -14 -5 -28 -8 -30 -6 -2 2 -13 72 -24 155 -20 143 -20 153 -5 177 10
15 27 30 39 35 35 14 3063 13 3090 -2z m-2613 -529 c36 -11 82 -30 102 -40 48
-24 93 -24 125 1 41 32 134 62 213 67 90 7 179 -13 255 -57 29 -17 61 -30 72
-30 11 0 44 13 74 30 146 79 313 79 452 0 30 -16 61 -30 70 -30 9 0 48 16 86
35 139 71 281 73 418 5 44 -22 91 -40 103 -40 12 0 53 14 92 31 106 46 195 62
313 55 87 -5 208 -26 220 -38 2 -2 -122 -913 -275 -2025 -222 -1607 -283
-2029 -299 -2060 -23 -45 -72 -93 -121 -119 -33 -18 -76 -19 -814 -22 -858 -3
-832 -4 -908 58 -83 68 -60 -64 -358 2095 -148 1078 -274 1986 -278 2018 l-9
57 41 11 c125 34 321 33 426 -2z"/>
<path d="M2635 4093 c-11 -3 -30 -14 -42 -26 l-23 -20 0 -377 0 -377 26 -24
26 -24 375 0 375 0 24 28 24 28 0 365 c0 243 -4 372 -11 386 -24 44 -57 48
-416 47 -186 -1 -347 -3 -358 -6z m615 -423 l0 -260 -255 0 -255 0 0 260 0
260 255 0 255 0 0 -260z"/>
<path d="M1876 3428 c-22 -20 -353 -586 -369 -631 -4 -10 -1 -33 7 -51 12 -29
53 -56 321 -210 168 -98 321 -180 339 -183 22 -3 38 1 54 14 12 10 101 155
198 323 186 320 197 348 159 390 -10 11 -56 41 -104 68 -47 28 -185 107 -305
176 -137 79 -230 126 -247 126 -15 0 -39 -10 -53 -22z m312 -308 c116 -67 212
-124 212 -127 0 -3 -57 -104 -126 -224 l-125 -218 -217 126 c-119 68 -219 127
-221 129 -2 2 38 77 89 166 149 259 161 279 168 275 4 -3 103 -59 220 -127z"/>
<path d="M2785 2336 c-164 -96 -310 -186 -323 -202 -17 -20 -22 -35 -18 -55 6
-31 338 -613 367 -644 41 -43 73 -30 399 159 168 97 311 184 318 193 30 41 16
76 -159 380 -94 164 -182 308 -196 321 -46 42 -67 33 -388 -152z m431 -246
c68 -118 124 -217 124 -220 -1 -7 -425 -250 -436 -250 -13 0 -258 430 -250
438 14 14 421 250 429 248 5 -1 65 -98 133 -216z"/>
</g>
</svg>
