<?xml version="1.0" standalone="no"?>
<!DOCTYPE svg PUBLIC "-//W3C//DTD SVG 20010904//EN"
 "http://www.w3.org/TR/2001/REC-SVG-20010904/DTD/svg10.dtd">
<svg version="1.0" xmlns="http://www.w3.org/2000/svg"
 width="512.000000pt" height="512.000000pt" viewBox="0 0 512.000000 512.000000"
 preserveAspectRatio="xMidYMid meet">

<g transform="translate(0.000000,512.000000) scale(0.100000,-0.100000)"
fill="#000000" stroke="none">
<path d="M64 5110 c-12 -4 -31 -21 -43 -36 -21 -27 -21 -27 -21 -718 0 -753 0
-749 57 -864 15 -30 53 -82 85 -117 l59 -64 -4 -863 c-3 -850 -3 -867 -30
-1133 -36 -370 -59 -693 -61 -860 -1 -125 2 -146 22 -198 64 -157 204 -252
372 -252 168 0 308 95 372 252 21 53 23 71 21 218 -2 88 -14 297 -27 465 -13
168 -23 306 -21 308 1 1 27 -28 57 -65 68 -84 231 -245 318 -314 673 -535
1607 -619 2360 -212 291 157 581 419 759 687 25 37 47 63 49 58 2 -6 -8 -152
-22 -324 -40 -496 -50 -688 -37 -749 36 -171 157 -289 331 -321 159 -30 347
67 415 214 44 95 49 143 36 363 -15 252 -45 630 -71 892 -19 192 -20 277 -20
1888 l0 1687 -34 34 c-59 59 -112 42 -185 -59 -177 -245 -304 -479 -407 -744
-40 -104 -102 -301 -119 -381 -4 -18 -10 -32 -14 -30 -4 2 -35 35 -68 73 -367
428 -869 690 -1427 744 -622 61 -1235 -151 -1688 -585 l-78 -74 0 511 0 511
-35 35 c-31 31 -40 35 -72 30 -20 -4 -48 -18 -62 -32 l-26 -25 -3 -620 -2
-620 -100 0 -100 0 0 616 0 616 -35 35 c-31 31 -40 35 -72 30 -20 -4 -48 -18
-62 -32 l-26 -25 -3 -620 -2 -620 -100 0 -100 0 -2 621 -3 621 -33 29 c-33 29
-60 35 -98 19z m4756 -1480 l0 -1060 -127 0 -128 0 -72 72 -73 72 0 453 c0
411 2 461 20 556 42 220 125 473 221 677 49 104 149 290 156 290 1 0 3 -477 3
-1060z m-2062 859 c464 -50 898 -264 1212 -595 79 -84 168 -196 223 -281 l27
-43 0 -463 0 -464 29 -39 c16 -21 61 -70 100 -109 l71 -69 0 -231 0 -231 -31
-85 c-168 -462 -527 -860 -974 -1079 -459 -224 -980 -260 -1466 -100 -468 154
-866 488 -1108 931 l-41 76 0 803 0 802 58 62 c79 86 142 225 142 317 0 31 47
94 153 205 409 431 1021 657 1605 593z m-1978 -877 c0 -23 -64 -103 -109 -137
-29 -21 -57 -49 -62 -62 -5 -13 -9 -208 -9 -434 l0 -409 -100 0 -100 0 0 409
c0 226 -4 421 -9 434 -5 13 -33 41 -62 62 -45 34 -109 114 -109 137 0 4 126 8
280 8 154 0 280 -4 280 -8z m-180 -1342 l0 -100 -100 0 -100 0 0 100 0 100
100 0 100 0 0 -100z m4220 0 l0 -100 -100 0 -100 0 0 100 0 100 100 0 100 0 0
-100z m-4220 -448 c0 -82 13 -310 29 -508 84 -1019 83 -979 10 -1053 -82 -81
-196 -81 -278 0 -73 74 -74 34 10 1053 16 198 29 426 29 508 l0 148 100 0 100
0 0 -148z m4220 0 c0 -82 13 -310 29 -508 84 -1019 83 -979 10 -1053 -82 -81
-196 -81 -278 0 -73 74 -74 34 10 1053 16 198 29 426 29 508 l0 148 100 0 100
0 0 -148z"/>
<path d="M2367 3935 c-553 -76 -1020 -492 -1161 -1037 -124 -477 15 -981 368
-1334 550 -550 1422 -550 1972 0 550 550 550 1422 0 1972 -316 315 -739 459
-1179 399z m428 -210 c479 -100 839 -462 942 -945 12 -60 18 -128 18 -230 0
-257 -59 -452 -200 -666 -173 -261 -445 -443 -765 -511 -117 -24 -343 -24
-460 0 -320 68 -592 250 -765 511 -141 214 -200 409 -200 666 0 157 16 255 62
390 125 367 446 668 817 766 173 46 387 53 551 19z"/>
<path d="M3425 2641 c-44 -19 -56 -47 -70 -158 -8 -59 -25 -144 -39 -188 -56
-178 -196 -345 -372 -446 -87 -49 -107 -124 -49 -179 38 -36 87 -31 170 20
235 143 394 352 460 606 21 81 38 230 31 269 -11 58 -80 98 -131 76z"/>
<path d="M2534 1740 c-54 -21 -72 -105 -34 -153 27 -34 78 -44 118 -23 37 19
52 44 52 86 0 42 -15 67 -50 85 -32 17 -54 18 -86 5z"/>
</g>
</svg>
