<?xml version="1.0" standalone="no"?>
<!DOCTYPE svg PUBLIC "-//W3C//DTD SVG 20010904//EN"
 "http://www.w3.org/TR/2001/REC-SVG-20010904/DTD/svg10.dtd">
<svg version="1.0" xmlns="http://www.w3.org/2000/svg"
 width="512.000000pt" height="512.000000pt" viewBox="0 0 512.000000 512.000000"
 preserveAspectRatio="xMidYMid meet">

<g transform="translate(0.000000,512.000000) scale(0.100000,-0.100000)"
fill="#000000" stroke="none">
<path d="M1369 4433 c-15 -2 -51 -18 -80 -36 -104 -62 -84 13 -340 -1269 -126
-629 -234 -1166 -240 -1195 l-10 -52 -326 -3 -325 -3 -24 -28 -24 -28 0 -280
c0 -182 4 -287 11 -301 22 -41 64 -48 303 -48 l224 0 63 -187 c93 -284 97
-291 129 -308 25 -13 256 -15 1830 -15 1574 0 1805 2 1830 15 32 17 36 24 129
308 l63 187 224 0 c239 0 281 7 303 48 7 14 11 119 11 301 l0 280 -24 28 -24
28 -325 3 -326 3 -10 52 c-6 29 -114 566 -240 1195 -207 1034 -231 1147 -257
1190 -33 53 -111 106 -171 116 -41 6 -2331 6 -2374 -1z m2357 -173 c16 -6 35
-20 42 -31 12 -19 152 -692 152 -731 0 -24 -64 -65 -122 -77 -33 -8 -63 -8
-100 0 -50 10 -60 19 -173 134 -66 67 -136 131 -155 143 -64 37 -146 55 -239
50 -121 -6 -201 -44 -285 -135 -134 -145 -165 -172 -222 -189 -105 -30 -184 2
-286 118 -94 107 -116 126 -196 165 -124 62 -268 56 -392 -14 -25 -14 -97 -79
-160 -143 -107 -109 -119 -119 -167 -129 -82 -17 -186 12 -216 60 -8 12 8 109
58 360 37 189 74 358 82 376 8 18 27 36 41 42 38 13 2299 14 2338 1z m-1636
-715 c24 -16 72 -65 108 -107 36 -43 88 -93 116 -113 180 -123 411 -98 557 61
155 170 190 194 286 194 88 -1 126 -23 235 -142 112 -120 175 -160 290 -184
83 -17 172 -7 240 27 29 15 39 17 43 7 2 -7 67 -327 143 -710 l139 -698 -1687
0 -1687 0 139 698 c76 383 141 703 143 710 4 10 14 8 44 -7 65 -33 159 -44
241 -27 113 24 176 64 286 182 121 131 145 145 245 142 66 -3 82 -7 119 -33z
m2860 -2005 l0 -170 -2390 0 -2390 0 0 170 0 170 2390 0 2390 0 0 -170z m-552
-362 c-3 -7 -29 -84 -57 -170 l-53 -158 -1728 0 -1728 0 -53 158 c-28 86 -54
163 -57 170 -3 9 369 12 1838 12 1469 0 1841 -3 1838 -12z"/>
<path d="M3695 3045 c-14 -13 -25 -35 -25 -47 0 -13 24 -145 54 -293 50 -250
56 -271 82 -293 51 -44 134 -9 134 57 0 15 -24 148 -54 296 -46 228 -57 272
-76 287 -32 26 -86 23 -115 -7z"/>
<path d="M3853 2276 c-31 -27 -35 -66 -14 -143 15 -54 45 -83 88 -83 65 0 92
54 73 146 -21 98 -85 133 -147 80z"/>
</g>
</svg>
